<?xml version="1.0" encoding="utf-8"?>
<!-- Generator: Adobe Illustrator 25.2.3, SVG Export Plug-In . SVG Version: 6.00 Build 0)  -->
<svg version="1.1" xmlns="http://www.w3.org/2000/svg" xmlns:xlink="http://www.w3.org/1999/xlink" x="0px" y="0px"
	 viewBox="0 0 207.2 207.2" style="enable-background:new 0 0 207.2 207.2;" xml:space="preserve">
<style type="text/css">
	.st0{fill:#008026;}
	.st1{fill:#FEEC00;}
	.st2{fill:#750786;}
	.st3{fill:#004DFE;}
	.st4{fill:#FE8B00;}
	.st5{fill:#E30303;}
	.st6{opacity:0.15;}
</style>
<g id="Layer_2">
</g>
<g id="Layer_1">
	<g>
		<path class="st0" d="M158,100.6c-3.8-6.5-7.6-12.6-11.5-19c-18,0-54.2,0-54.2,0s-18.9,0-28.2,0l-0.3,0.7
			c-4.3,7.4-8.6,14.7-12.9,22.1l-1,1.8c0,0-0.5,0.9-0.6,1c0,0.1-0.2,0.3-0.2,0.5c-0.1,0.2-0.1,0.3-0.1,0.4c-0.1,0.2-0.1,0.7-0.1,0.7
			l0,0.2l28.2-0.1v0c0,0,0,0,0,0c0-0.3,0-0.9,0.2-1.2c4.2-7.2,8.3-14.7,12.6-21.9c0.4-0.7,1.6-1.6,2.5-1.6
			c7.9-0.1,17.2,0.1,25.1,0.1c2.1,0,2.3,1.3,3,2.2c3.8,5.4,6.9,11.1,10.6,16.6c0.6,0.9,1.4,1.8,2.3,1.8c7.3,0.2,14.7,0.1,22,0
			C158.1,104.9,159.3,102.9,158,100.6z"/>
		<path class="st1" d="M107.5,55.8l-2.4,4.2c0.6,0,2.3,0,2.3,0l18.3-0.1c0.7,0,1.5,0,2.3,0c0,0,1.5,0,2.8,0c0.4,0,1,0,1.4,0
			c0.4,0.1,0.6,0.2,0.8,0.3c0.2,0.1,0.2,0.1,0.4,0.2c0.2,0.1,0.4,0.3,0.7,0.7c0,0,8.4,13.8,12.5,20.6l-54.4-0.1l-28,0.1l5.3-9.2
			l9.8-16.8l0.4-0.8c0,0,18.9,0,28.2,0L107.5,55.8z"/>
		<path class="st2" d="M145.9,136.6l-7.5,12.5c0,0-2.7,4.3-3.8,6.5c-0.1,0.3-0.3,0.5-0.4,0.7c-0.1,0.2-0.3,0.4-0.5,0.6
			s-0.5,0.4-0.7,0.5c-0.6,0.4-0.9,0.4-1.9,0.4c0,0-0.6,0-0.9,0c-17.2,0.1-51.8,0-51.8,0c-0.9,0-1-0.1-1.5-0.4
			c-0.1-0.1-0.5-0.3-0.6-0.5c-0.2-0.2-0.3-0.4-0.3-0.4c-4.1-6.7-7.9-13.7-11.7-20.6h0.6c0,0,12.3,0,18.8,0c20.7,0,41.9,0,62.6,0
			L145.9,136.6z"/>
		<path class="st3" d="M145.9,135.9c-20.7,0-41.3,0-62,0c-6.4,0-19.6,0-19.6,0l0,0c-4.9-8.4-9.9-16.9-14.8-25.3
			c-0.2-0.3-0.3-0.7-0.5-1c-0.1-0.3-0.1-0.7-0.1-0.7c9.5,0,28.2,0,28.2,0s0,0.4,0.1,0.8c0.1,0.4,0.3,0.5,0.4,0.8
			c0.9,1.7,2,3.5,3,5.1c3,5.3,9.1,15.5,9.1,15.5s0.3,0.6,0.8,1.1c0.2,0.2,0.3,0.3,0.6,0.4c0.6,0.4,1.5,0.4,2,0.4l23.9,0
			c1.2,0,1.4-0.1,1.9-0.3c1-0.4,1.7-1.9,1.7-1.9c0.5-0.9,1-1.7,1.3-2.2c2.9-4.9,6.2-9.8,9.1-14.7c1-1.7,1.9-2.1,3.7-2.1
			c6.4,0,12.9-0.1,19.4,0.1c0.7,0,1.8-0.1,2.6,0.1c0.8,0.2,1.2,0.9,1.5,1.4c0.2,0.4,0.4,0.9,0.4,1.5c-0.1,0.9-0.7,1.9-1.1,2.6
			c-3.6,6.2-7.5,12.3-11.2,18.4L145.9,135.9L145.9,135.9z"/>
		<path class="st4" d="M114,44.7c3.3-5.7,10-17.2,10-17.2c-9.3,0-18.4-0.1-27.8-0.1h-0.4c-2.9,4.9-5.9,10-8.8,15
			c-2.3,4-5,8.6-7.3,12.6c0,0,18.8,0,28.2,0L114,44.7z"/>
		<path class="st5" d="M124,27.5c-9.3,0-18.9,0.1-28.3,0.1l0.3-0.6c2.8-5,5.8-10,8.7-15c1.7-3,3.5-6,5.2-9c0.3-0.5,0.6-1.2,1-1.5
			c0.7-0.5,1.4-0.4,2,0.1c0.3,0.3,0.5,0.7,0.8,1.2c3.8,6.6,7.5,13.2,11.4,19.7C126.2,24.4,125,25.7,124,27.5z"/>
		<path class="st4" d="M71.6,55h-7.2c2-9.1,4.1-18.3,6-27.5h15.8L71.6,55z"/>
		<path class="st4" d="M54.3,27.5c2.6,2.2,6,5.4,6,5.4c0.5,0.4,0.9,0.8,1.2,1c0.2,0.2,0.3,0.4,0.5,0.9c0.2,0.6,0,1.3-0.2,1.8
			c-0.2,0.9-0.6,2.6-0.6,2.6c-1,5.2-2.1,10.6-3.2,15.7c-3.1,0-5.8,0-9,0c0-9.1,0-18.4,0-27.5L54.3,27.5L54.3,27.5z"/>
		<path class="st5" d="M86.2,27.5c-5.4,0-15.8,0-15.8,0c1.5-7.3,3.2-14.6,4.8-21.9c0.1-0.4,0.2-1.1,0.5-1.4C75.9,4.1,76,4,76.2,4
			C76.5,3.9,76.7,3.9,77,4c0.3,0.1,0.7,0.7,1,1.1c2.9,3.3,8.6,10.2,8.6,10.2l2.1,2.5c0.4,0.5,1.2,1.3,1.3,2c0.1,0.8-0.3,1.3-0.6,1.8
			c-0.9,1.7-2.7,5.1-2.7,5.1L86.2,27.5z"/>
		<path class="st1" d="M49,55c3.1,0,5.8,0,9,0c-1.8,8.9-3.8,17.8-5.6,26.8c-1.3,0-2.1,0-3.4,0C49,72.8,49,63.9,49,55z"/>
		<path class="st1" d="M64.4,55h7.2l-4.2,7.9l-5.1,9.6l-0.9,1.6c-0.3,0.4-0.5,0.3-0.7,0.3c-0.2,0-0.6-0.2-0.5-0.9l0.3-1.3
			C61.9,66.5,63,60.8,64.4,55z"/>
		<path class="st0" d="M49,81.8c1.3,0,2.1,0,3.4,0L51,88.3l-0.2,0.9c0,0.1-0.1,0.2-0.1,0.2c-0.2,0.3-0.5,0.4-0.6,0.5
			c-0.3,0-0.6,0-0.9-0.4C49,89.4,49,89.1,49,89.1S48.9,84,49,81.8z"/>
		<path class="st5" d="M54.3,27.5H49v-1.8c0,0,0-0.6,0-0.8c0-0.2,0.1-0.3,0.1-0.4c0.1-0.1,0.1-0.1,0.2-0.2c0.1-0.1,0.2-0.2,0.4-0.3
			c0.2-0.1,0.4-0.1,0.6,0c0.2,0.1,0.3,0.2,0.5,0.4c0.8,0.7,2.4,2.2,2.4,2.2S53.9,27.2,54.3,27.5z"/>
	</g>
</g>
</svg>
