<?xml version="1.0" standalone="no"?>
<!DOCTYPE svg PUBLIC "-//W3C//DTD SVG 20010904//EN"
 "http://www.w3.org/TR/2001/REC-SVG-20010904/DTD/svg10.dtd">
<svg version="1.0" xmlns="http://www.w3.org/2000/svg"
 width="700.000000pt" height="700.000000pt" viewBox="0 0 700.000000 700.000000"
 preserveAspectRatio="xMidYMid meet">
<metadata>
Created by potrace 1.14, written by Peter Selinger 2001-2017
</metadata>
<g transform="translate(0.000000,700.000000) scale(0.100000,-0.100000)"
fill="#000000" stroke="none">
<path d="M3799 6808 c-17 -17 -42 -56 -56 -87 -32 -67 -107 -200 -188 -331
-32 -52 -63 -104 -69 -115 -6 -11 -52 -89 -101 -173 -127 -215 -156 -264 -234
-403 -32 -56 -138 -235 -159 -269 -24 -37 -473 -820 -490 -854 -8 -16 -22 -30
-31 -33 -9 -2 -21 -14 -27 -26 -6 -12 -80 -139 -164 -282 -84 -143 -176 -300
-205 -350 -29 -49 -98 -166 -154 -258 -55 -93 -101 -172 -101 -176 0 -5 -7
-14 -16 -22 -14 -11 -14 -13 0 -21 13 -7 2 -31 -64 -140 -44 -72 -80 -132 -80
-134 0 -2 -17 -32 -39 -67 -43 -70 -221 -381 -268 -467 -16 -30 -49 -91 -73
-135 -24 -44 -61 -106 -81 -138 -29 -45 -36 -64 -32 -90 7 -49 7 -50 314 -574
120 -206 219 -377 219 -381 0 -3 6 -13 14 -21 7 -9 28 -44 46 -79 18 -34 37
-65 44 -69 6 -4 792 -8 1748 -8 l1736 0 62 90 c200 293 454 724 479 813 10 33
-13 96 -44 122 -27 23 -970 26 -1032 4 -46 -17 -49 -21 -223 -299 -276 -442
-342 -541 -379 -567 l-35 -23 -560 0 c-415 1 -570 4 -597 13 -29 10 -44 26
-78 85 -23 39 -70 117 -103 172 -139 229 -253 423 -279 475 -16 30 -46 84 -68
120 -22 36 -46 76 -52 90 -27 57 -20 77 114 315 71 127 133 235 137 240 4 6
19 31 33 57 31 56 142 251 203 358 70 122 13 112 680 112 465 0 579 -3 594
-14 18 -12 77 -102 390 -593 63 -99 133 -199 156 -222 l41 -43 485 0 c523 1
539 2 590 54 25 25 29 36 25 65 -5 39 -75 162 -292 516 -54 88 -103 169 -109
180 -54 95 -110 185 -117 185 -4 0 -62 91 -130 203 -256 425 -403 663 -428
694 l-26 32 -589 0 -588 1 18 28 c10 15 23 36 29 47 14 27 68 109 76 115 9 8
611 1047 661 1140 7 14 30 50 49 81 42 65 52 92 51 137 -1 33 -47 117 -291
535 -66 115 -121 210 -121 212 0 10 -113 191 -123 197 -28 18 -69 8 -98 -24z"/>
<path d="M2301 6697 c-5 -13 -12 -39 -15 -58 -3 -19 -12 -63 -20 -99 -8 -36
-17 -76 -20 -90 -2 -14 -10 -47 -16 -75 -6 -27 -14 -61 -16 -75 -3 -14 -7 -33
-10 -42 -3 -9 -7 -25 -9 -35 -2 -10 -26 -121 -54 -248 -27 -126 -52 -241 -54
-255 -3 -14 -23 -100 -45 -190 -44 -179 -98 -410 -106 -450 -2 -14 -17 -77
-31 -140 -15 -63 -29 -124 -31 -135 -2 -11 -8 -42 -14 -70 -6 -27 -12 -59 -14
-70 -2 -11 -11 -54 -20 -95 -8 -41 -18 -91 -21 -110 -3 -19 -15 -78 -26 -131
-11 -52 -21 -104 -23 -116 -12 -62 -49 -226 -63 -278 -8 -33 -17 -73 -20 -88
-2 -16 -10 -48 -18 -72 -7 -24 -10 -46 -7 -49 15 -16 42 -2 69 37 38 53 219
388 333 618 48 97 101 201 118 230 16 30 53 99 82 154 29 55 101 190 160 300
58 110 110 207 113 215 4 8 11 22 17 30 5 8 42 76 81 150 39 74 84 159 100
187 16 29 30 63 32 75 2 13 22 59 44 103 23 44 53 103 67 130 28 53 33 110 13
136 -7 9 -31 38 -54 65 -33 40 -163 198 -216 264 -162 201 -252 300 -273 300
-16 0 -27 -8 -33 -23z"/>
<path d="M1181 5861 c-10 -6 -14 -30 -14 -80 0 -39 -4 -71 -9 -71 -4 0 -8
-263 -8 -585 0 -322 4 -585 8 -585 4 0 9 -150 10 -332 0 -183 4 -439 7 -570 3
-130 2 -238 -2 -241 -12 -7 -7 -327 5 -339 5 -5 22 -8 38 -6 26 3 28 7 30 48
1 25 12 88 24 140 12 52 24 109 27 125 3 17 10 37 17 45 11 12 34 110 60 250
2 14 19 93 36 175 18 83 34 159 36 170 2 11 24 121 49 245 26 124 48 236 51
249 3 14 7 28 10 32 2 4 -1 9 -6 11 -8 2 -8 18 0 53 7 28 14 61 16 75 12 62
78 367 106 490 17 74 33 162 35 195 5 69 15 55 -134 195 -152 144 -173 161
-185 154 -7 -4 -8 -3 -4 5 4 6 -6 22 -25 39 -18 15 -40 34 -48 42 -72 68 -105
87 -130 71z"/>
<path d="M1843 1078 c8 -21 256 -461 377 -669 94 -162 121 -200 151 -217 l37
-22 1152 0 c811 0 1163 3 1189 11 32 10 42 20 79 92 83 164 449 787 471 804
13 10 -354 12 -1723 13 -1386 0 -1737 -3 -1733 -12z"/>
</g>
</svg>
